<?xml version="1.0" encoding="utf-8"?>
<!-- Generator: Adobe Illustrator 16.0.0, SVG Export Plug-In . SVG Version: 6.00 Build 0)  -->
<!DOCTYPE svg PUBLIC "-//W3C//DTD SVG 1.1//EN" "http://www.w3.org/Graphics/SVG/1.1/DTD/svg11.dtd">
<svg version="1.1" id="Layer_1" xmlns="http://www.w3.org/2000/svg" xmlns:xlink="http://www.w3.org/1999/xlink" x="0px" y="0px"
	 width="240px" height="400px" viewBox="0 0 240 400" enable-background="new 0 0 240 400" xml:space="preserve">
<g>
	<path fill="#196593" d="M58.999,174.395c-5.774,11.962-9.44,24.617-10.938,37.352c-0.067,0.912-0.202,1.729-0.202,2.583
		c-7.81-10.04-13.656-21.574-17.246-34.185c-0.968-3.594-1.801-7.188-2.363-10.889c-3.933-24.435,1.565-48.029,13.849-67.736
		C39.444,127.358,45.702,152.833,58.999,174.395z"/>
	<path fill="#196593" d="M87.195,136.841c-2.214,1.977-4.299,4.03-6.385,6.17c-5.64,5.923-10.667,12.259-14.851,18.865
		c-4.804-7.785-8.553-16.23-11.093-25.223c-0.973-3.681-1.797-7.268-2.363-10.947c-3.926-24.441,1.559-48,13.836-67.739
		C63.491,86.235,71.217,114.021,87.195,136.841z"/>
	<path fill="#196593" d="M130.457,110.967c-10.669,3.773-20.897,8.984-30.315,15.556c-6.985-9.471-12.232-20.232-15.504-31.907
		c-1.022-3.605-1.831-7.194-2.459-10.92c-3.915-24.437,1.617-48.016,13.874-67.691C92.485,51.316,105.438,85.99,130.457,110.967z"/>
	<path fill="#196593" d="M185.588,350.396c-1.873,12.533-7.896,24.338-17.249,33.601c1.41-4.133,2.326-8.615,2.767-13.161
		c0.962-10.643-0.97-20.799-5.018-29.932c-9.056-20.021-29.015-34.831-53.204-36.875c-1.417-0.05-2.819-0.144-4.218-0.323h-0.254
		c-10.421-0.746-20.843-2.902-30.991-6.676c-3.149-1.186-6.338-2.497-9.438-3.998l0.379-0.777c-0.2,0.283-0.411,0.508-0.629,0.643
		c-53.539-25.753-75.382-88.014-48.971-139.399c-0.732,6.139-0.959,12.376-0.577,18.741c1.179,20.612,8.454,39.508,19.97,55.252
		c0.359,0.544,0.719,1.078,1.119,1.555c10.788,15.534,25.74,28.206,43.27,36.521c2.167,1.042,4.432,1.945,6.642,2.894h0.024
		l10.756,4.676l0.247,0.202h0.05c7.949,3.027,16.403,5.184,25.189,6.339h0.122c2.281,0.13,4.658,0.359,6.827,0.776h0.167
		c0.054,0,0.054,0,0.112,0c0.045,0,0.08,0,0.08,0.045c11.141,1.766,21.67,6.289,30.547,13.477l0,0
		c5.094,4.016,9.703,8.984,13.328,14.734c0.674,0.857,1.208,1.797,1.765,2.771C185.503,323.793,187.744,337.458,185.588,350.396z"/>
	<path fill="#2185D0" d="M232.306,212.012v-0.04c-0.045-0.292-0.188-0.651-0.359-1.002l-2.623-5.399l-1.329-2.569v-0.036
		l-0.719-1.438l-2.332-4.852l-2.362-4.852l-2.983-6.037l-4.056-8.106l-15.93-32.242c-0.579-1.95-1.352-3.888-2.165-5.705
		c-2.535-8.137-10.066-14.373-16.01-17.171c0,0.167,0,0.458-0.125,0.667l-1.938,6.58c-0.256,1.727-2.771,2.198-4.567,1.935
		c-1.797-0.294-2.961-1.911-2.683-3.596l1.604-9.456c-3.136-1.192-6.469-1.979-9.852-2.448l0.746,8.706
		c0.121,1.673-1.254,3.236-3.082,3.362c-1.766,0.114-3.279-1.175-3.477-2.864l-0.85-9.557c-0.283,0.004-0.57,0-0.849,0.022
		c-0.615,0.049-1.325,0.083-1.937,0.117c-0.898,0.14-1.904,0.202-2.888,0.326c-0.095,0-0.229,0-0.382,0.036
		c-0.953,0.144-1.896,0.299-2.947,0.436l2.493,8.517c0.382,1.667-0.651,3.41-2.386,3.875c-1.693,0.434-3.517-0.546-4.033-2.208
		l-2.543-9.004c-2.592,0.598-5.273,1.267-7.906,2.093l3.72,7.915c0.741,1.539-0.018,3.435-1.626,4.146
		c-1.712,0.694-3.589-0.018-4.308-1.61l-3.899-8.367c-2.511,0.914-4.843,1.902-7.199,3.012l4.787,8.11
		c0.952,1.516,0.318,3.418-1.202,4.27c-1.583,0.88-3.614,0.341-4.48-1.139l-4.921-8.268c-2.345,1.303-4.631,2.688-6.857,4.178
		l5.945,7.187c1.083,1.348,0.862,3.333-0.573,4.423c-1.399,1.058-3.504,0.809-4.614-0.497l-6.064-7.367
		c-0.784,0.571-1.606,1.22-2.401,1.829c-1.325,1.078-2.634,2.201-3.899,3.353l7.133,6.884c1.258,1.22,1.251,3.223-0.067,4.438
		c-1.267,1.182-3.347,1.17-4.604-0.029l-7.077-6.857c-1.869,1.909-3.623,3.841-5.298,5.847l8.065,5.586
		c1.447,1.026,1.795,2.994,0.717,4.404c-1.056,1.359-3.077,1.705-4.528,0.683l-8.137-5.626c-1.631,2.237-3.147,4.532-4.58,6.9
		l9.519,5.103c1.572,0.817,2.154,2.731,1.258,4.276c-0.898,1.509-2.879,2.048-4.485,1.181l-9.351-5.004l-0.5,0.97
		c0,0-1.065,2.244-2.733,6.049l9.631,3.524c1.687,0.618,2.518,2.455,1.869,4.097c-0.656,1.586-2.536,2.376-4.218,1.808l-9.797-3.596
		c-0.898,2.003-1.797,4.25-2.792,6.652l9.88,3.616c1.696,0.584,2.531,2.417,1.896,4.059c-0.676,1.6-2.549,2.41-4.245,1.811
		l-9.892-3.639c-0.887,2.262-1.788,4.598-2.679,7.028l9.256,3.409c1.631,0.615,2.529,2.443,1.831,4.007
		c-0.609,1.667-2.536,2.462-4.171,1.814l-9.052-3.306c-0.872,2.516-1.711,5.031-2.544,7.564l9.646,2.588
		c1.756,0.512,2.771,2.219,2.3,3.863c-0.512,1.742-2.309,2.686-4.042,2.188l-9.728-2.547c-0.051,0.359-0.18,0.651-0.227,0.943v0.049
		c15.103,25.96,42.594,44.647,75.429,48.223c1.104,0.036,2.224,0.18,3.328,0.319c0.045,0,0.135,0.049,0.193,0.049
		c10.876,1.591,21.104,5.53,29.859,11.262c8.76,5.638,16.171,13.185,21.751,21.81c6.998,10.781,10.982,23.65,10.982,37.352
		c0,10.135-2.188,19.788-6.141,28.422c17.609-14.743,28.821-36.633,28.821-60.922c0-5.93-0.61-11.68-1.873-17.312
		c-0.961-3.994-2.151-7.803-3.598-11.617c-3.783-9.343-9.335-17.968-16.302-25.312c-0.517-0.562-0.957-1.028-1.527-1.631
		c-2.84-2.623-5.881-5.175-8.858-7.556c-1.155-0.786-2.327-1.653-3.478-2.43c-3.8-2.687-7.848-5.117-11.891-7.273
		c-1.396-0.719-2.749-1.438-4.038-2.044c-0.054,0-0.153-0.049-0.207-0.09c-2.73-1.725-5.246-3.912-6.967-6.36
		c-0.27-0.247-0.494-0.525-0.634-0.858c-0.04-0.085-0.148-0.229-0.184-0.314c-0.732-1.127-1.308-2.506-1.784-3.764
		c-0.058-0.055-0.058-0.055-0.058-0.09c-0.85-2.192-1.563-4.447-1.923-6.811c-1.006-4.824-0.813-9.729,0.144-14.262
		c-0.104-0.054-0.144-0.054-0.144-0.101c-14.734-4.627-23.251-18.914-20.556-33.017c-1.109,13.519,9.366,24.48,23.17,29.176
		c0.256,0.092,0.404,0.173,0.615,0.211c0.782,0.297,1.703,0.515,2.521,0.724c-0.185,0.519-0.364,1.134-0.48,1.705
		c-0.53,1.846-0.876,5.345-0.769,5.112v7.066c0.045,0.346,0.104,0.557,0.148,0.822c0.283,2.138,0.736,4.209,1.455,6.234
		c0,0.045,0.364,0.634,0.477,0.85c0.139,0.327,0.242,0.503,0.422,0.719c0.243,0.467,0.539,0.975,0.903,1.428
		c0.071,0.041,0.211,0.225,0.359,0.369c0.135,0.211,0.359,0.386,0.534,0.674c0.185,0.18,0.418,0.404,0.558,0.629
		c0,0,1.203,1.141,1.783,1.572c0,0,0.534,0.359,0.719,0.561c0.359,0.238,0.736,0.517,1.172,0.737
		c0.984,0.539,2.062,1.082,3.141,1.451c-0.449-0.594-0.926-1.271-1.209-1.914c0,0-1.109-2.722-1.109-4.375
		c0-5.391,2.516-7.69,8.148-7.69c2.709,0,5.054,0.947,6.892,2.583c0.237,0.184,0.574,0.382,0.728,0.669l6.055,5.822l3.424,3.233
		l1.832,1.797l4.133,3.958c2.422,2.151,6.227,2.062,8.428-0.364c1.747-1.675,4.002-2.946,6.45-3.616
		c0.575-0.292,1.154-0.337,1.869-0.472c0.741-0.18,1.607-0.225,2.516-0.225c0.094,0,0.35,0,0.444,0h0.193
		c1.878-0.265,3.675-0.911,5.301-1.796h0.045c2.596-4.098,4.807-8.338,6.733-12.83C232.4,212.38,232.347,212.115,232.306,212.012z"
		/>
	<path fill="#2185D0" d="M213.83,118.07c-1,1-2.11,2.03-3.29,3.06c-6.95,6.08-16.11,12.26-16.11,12.26l-4.729-3.95l-8.26-6.88
		c1.149-1.93,4.649-4.8,16.319-6.97c0.19-0.04,0.391-0.07,0.59-0.1C205.65,114.31,216.15,115.75,213.83,118.07z"/>
	<path fill="#2185D0" d="M217.12,126.51c-8.5,4.98-22.93,10.04-22.93,10.04l-0.301-0.33l0.311-0.21
		c0.47-0.32,10.72-7.24,17.84-13.78C216.08,123.71,218.81,125.53,217.12,126.51z"/>
</g>
</svg>
