<?xml version="1.0" encoding="UTF-8" standalone="no"?>
<svg
   xmlns:dc="http://purl.org/dc/elements/1.1/"
   xmlns:cc="http://creativecommons.org/ns#"
   xmlns:rdf="http://www.w3.org/1999/02/22-rdf-syntax-ns#"
   xmlns:svg="http://www.w3.org/2000/svg"
   xmlns="http://www.w3.org/2000/svg"
   xmlns:sodipodi="http://sodipodi.sourceforge.net/DTD/sodipodi-0.dtd"
   xmlns:inkscape="http://www.inkscape.org/namespaces/inkscape"
   xml:space="preserve"
   enable-background="new 0 0 240 400"
   viewBox="0 0 240 400"
   height="400px"
   width="240px"
   y="0px"
   x="0px"
   id="Layer_1"
   version="1.1"
   sodipodi:docname="pegassist_logo_r8+name.svg"
   inkscape:version="1.0 (4035a4f, 2020-05-01)"><sodipodi:namedview
   inkscape:document-rotation="0"
   pagecolor="#ffffff"
   bordercolor="#666666"
   borderopacity="1"
   objecttolerance="10"
   gridtolerance="10"
   guidetolerance="10"
   inkscape:pageopacity="0"
   inkscape:pageshadow="2"
   inkscape:window-width="1408"
   inkscape:window-height="915"
   id="namedview849"
   showgrid="false"
   inkscape:zoom="1.8375"
   inkscape:cx="120"
   inkscape:cy="200"
   inkscape:window-x="0"
   inkscape:window-y="23"
   inkscape:window-maximized="0"
   inkscape:current-layer="Layer_1" /><metadata
   id="metadata31"><rdf:RDF><cc:Work
       rdf:about=""><dc:format>image/svg+xml</dc:format><dc:type
         rdf:resource="http://purl.org/dc/dcmitype/StillImage" /><dc:title /></cc:Work></rdf:RDF></metadata><defs
   id="defs29"><rect
     id="rect35"
     height="146.87065"
     width="203.61613"
     y="147.98331"
     x="265.36857" /></defs>
<g
   transform="matrix(0.29608849,0,0,0.29608849,2.4012401,36.983264)"
   id="g24">
	<path
   id="path10"
   d="m 58.999,174.395 c -5.774,11.962 -9.44,24.617 -10.938,37.352 -0.067,0.912 -0.202,1.729 -0.202,2.583 -7.81,-10.04 -13.656,-21.574 -17.246,-34.185 -0.968,-3.594 -1.801,-7.188 -2.363,-10.889 -3.933,-24.435 1.565,-48.029 13.849,-67.736 -2.655,25.838 3.603,51.313 16.9,72.875 z"
   fill="#196593" />
	<path
   id="path12"
   d="m 87.195,136.841 c -2.214,1.977 -4.299,4.03 -6.385,6.17 -5.64,5.923 -10.667,12.259 -14.851,18.865 -4.804,-7.785 -8.553,-16.23 -11.093,-25.223 -0.973,-3.681 -1.797,-7.268 -2.363,-10.947 -3.926,-24.441 1.559,-48 13.836,-67.739 -2.848,28.268 4.878,56.054 20.856,78.874 z"
   fill="#196593" />
	<path
   id="path14"
   d="m 130.457,110.967 c -10.669,3.773 -20.897,8.984 -30.315,15.556 C 93.157,117.052 87.91,106.291 84.638,94.616 83.616,91.011 82.807,87.422 82.179,83.696 78.264,59.259 83.796,35.68 96.053,16.005 c -3.568,35.311 9.385,69.985 34.404,94.962 z"
   fill="#196593" />
	<path
   id="path16"
   d="m 185.588,350.396 c -1.873,12.533 -7.896,24.338 -17.249,33.601 1.41,-4.133 2.326,-8.615 2.767,-13.161 0.962,-10.643 -0.97,-20.799 -5.018,-29.932 -9.056,-20.021 -29.015,-34.831 -53.204,-36.875 -1.417,-0.05 -2.819,-0.144 -4.218,-0.323 h -0.254 c -10.421,-0.746 -20.843,-2.902 -30.991,-6.676 -3.149,-1.186 -6.338,-2.497 -9.438,-3.998 l 0.379,-0.777 c -0.2,0.283 -0.411,0.508 -0.629,0.643 -53.539,-25.753 -75.382,-88.014 -48.971,-139.399 -0.732,6.139 -0.959,12.376 -0.577,18.741 1.179,20.612 8.454,39.508 19.97,55.252 0.359,0.544 0.719,1.078 1.119,1.555 10.788,15.534 25.74,28.206 43.27,36.521 2.167,1.042 4.432,1.945 6.642,2.894 h 0.024 l 10.756,4.676 0.247,0.202 h 0.05 c 7.949,3.027 16.403,5.184 25.189,6.339 h 0.122 c 2.281,0.13 4.658,0.359 6.827,0.776 h 0.167 c 0.054,0 0.054,0 0.112,0 0.045,0 0.08,0 0.08,0.045 11.141,1.766 21.67,6.289 30.547,13.477 v 0 c 5.094,4.016 9.703,8.984 13.328,14.734 0.674,0.857 1.208,1.797 1.765,2.771 7.103,12.311 9.344,25.976 7.188,38.914 z"
   fill="#196593" />
	<path
   id="path18"
   d="m 232.306,212.012 v -0.04 c -0.045,-0.292 -0.188,-0.651 -0.359,-1.002 l -2.623,-5.399 -1.329,-2.569 v -0.036 l -0.719,-1.438 -2.332,-4.852 -2.362,-4.852 -2.983,-6.037 -4.056,-8.106 -15.93,-32.242 c -0.579,-1.95 -1.352,-3.888 -2.165,-5.705 -2.535,-8.137 -10.066,-14.373 -16.01,-17.171 0,0.167 0,0.458 -0.125,0.667 l -1.938,6.58 c -0.256,1.727 -2.771,2.198 -4.567,1.935 -1.797,-0.294 -2.961,-1.911 -2.683,-3.596 l 1.604,-9.456 c -3.136,-1.192 -6.469,-1.979 -9.852,-2.448 l 0.746,8.706 c 0.121,1.673 -1.254,3.236 -3.082,3.362 -1.766,0.114 -3.279,-1.175 -3.477,-2.864 l -0.85,-9.557 c -0.283,0.004 -0.57,0 -0.849,0.022 -0.615,0.049 -1.325,0.083 -1.937,0.117 -0.898,0.14 -1.904,0.202 -2.888,0.326 -0.095,0 -0.229,0 -0.382,0.036 -0.953,0.144 -1.896,0.299 -2.947,0.436 l 2.493,8.517 c 0.382,1.667 -0.651,3.41 -2.386,3.875 -1.693,0.434 -3.517,-0.546 -4.033,-2.208 l -2.543,-9.004 c -2.592,0.598 -5.273,1.267 -7.906,2.093 l 3.72,7.915 c 0.741,1.539 -0.018,3.435 -1.626,4.146 -1.712,0.694 -3.589,-0.018 -4.308,-1.61 l -3.899,-8.367 c -2.511,0.914 -4.843,1.902 -7.199,3.012 l 4.787,8.11 c 0.952,1.516 0.318,3.418 -1.202,4.27 -1.583,0.88 -3.614,0.341 -4.48,-1.139 l -4.921,-8.268 c -2.345,1.303 -4.631,2.688 -6.857,4.178 l 5.945,7.187 c 1.083,1.348 0.862,3.333 -0.573,4.423 -1.399,1.058 -3.504,0.809 -4.614,-0.497 l -6.064,-7.367 c -0.784,0.571 -1.606,1.22 -2.401,1.829 -1.325,1.078 -2.634,2.201 -3.899,3.353 l 7.133,6.884 c 1.258,1.22 1.251,3.223 -0.067,4.438 -1.267,1.182 -3.347,1.17 -4.604,-0.029 l -7.077,-6.857 c -1.869,1.909 -3.623,3.841 -5.298,5.847 l 8.065,5.586 c 1.447,1.026 1.795,2.994 0.717,4.404 -1.056,1.359 -3.077,1.705 -4.528,0.683 l -8.137,-5.626 c -1.631,2.237 -3.147,4.532 -4.58,6.9 l 9.519,5.103 c 1.572,0.817 2.154,2.731 1.258,4.276 -0.898,1.509 -2.879,2.048 -4.485,1.181 l -9.351,-5.004 -0.5,0.97 c 0,0 -1.065,2.244 -2.733,6.049 l 9.631,3.524 c 1.687,0.618 2.518,2.455 1.869,4.097 -0.656,1.586 -2.536,2.376 -4.218,1.808 l -9.797,-3.596 c -0.898,2.003 -1.797,4.25 -2.792,6.652 l 9.88,3.616 c 1.696,0.584 2.531,2.417 1.896,4.059 -0.676,1.6 -2.549,2.41 -4.245,1.811 l -9.892,-3.639 c -0.887,2.262 -1.788,4.598 -2.679,7.028 l 9.256,3.409 c 1.631,0.615 2.529,2.443 1.831,4.007 -0.609,1.667 -2.536,2.462 -4.171,1.814 l -9.052,-3.306 c -0.872,2.516 -1.711,5.031 -2.544,7.564 l 9.646,2.588 c 1.756,0.512 2.771,2.219 2.3,3.863 -0.512,1.742 -2.309,2.686 -4.042,2.188 l -9.728,-2.547 c -0.051,0.359 -0.18,0.651 -0.227,0.943 v 0.049 c 15.103,25.96 42.594,44.647 75.429,48.223 1.104,0.036 2.224,0.18 3.328,0.319 0.045,0 0.135,0.049 0.193,0.049 10.876,1.591 21.104,5.53 29.859,11.262 8.76,5.638 16.171,13.185 21.751,21.81 6.998,10.781 10.982,23.65 10.982,37.352 0,10.135 -2.188,19.788 -6.141,28.422 17.609,-14.743 28.821,-36.633 28.821,-60.922 0,-5.93 -0.61,-11.68 -1.873,-17.312 -0.961,-3.994 -2.151,-7.803 -3.598,-11.617 -3.783,-9.343 -9.335,-17.968 -16.302,-25.312 -0.517,-0.562 -0.957,-1.028 -1.527,-1.631 -2.84,-2.623 -5.881,-5.175 -8.858,-7.556 -1.155,-0.786 -2.327,-1.653 -3.478,-2.43 -3.8,-2.687 -7.848,-5.117 -11.891,-7.273 -1.396,-0.719 -2.749,-1.438 -4.038,-2.044 -0.054,0 -0.153,-0.049 -0.207,-0.09 -2.73,-1.725 -5.246,-3.912 -6.967,-6.36 -0.27,-0.247 -0.494,-0.525 -0.634,-0.858 -0.04,-0.085 -0.148,-0.229 -0.184,-0.314 -0.732,-1.127 -1.308,-2.506 -1.784,-3.764 -0.058,-0.055 -0.058,-0.055 -0.058,-0.09 -0.85,-2.192 -1.563,-4.447 -1.923,-6.811 -1.006,-4.824 -0.813,-9.729 0.144,-14.262 -0.104,-0.054 -0.144,-0.054 -0.144,-0.101 -14.734,-4.627 -23.251,-18.914 -20.556,-33.017 -1.109,13.519 9.366,24.48 23.17,29.176 0.256,0.092 0.404,0.173 0.615,0.211 0.782,0.297 1.703,0.515 2.521,0.724 -0.185,0.519 -0.364,1.134 -0.48,1.705 -0.53,1.846 -0.876,5.345 -0.769,5.112 v 7.066 c 0.045,0.346 0.104,0.557 0.148,0.822 0.283,2.138 0.736,4.209 1.455,6.234 0,0.045 0.364,0.634 0.477,0.85 0.139,0.327 0.242,0.503 0.422,0.719 0.243,0.467 0.539,0.975 0.903,1.428 0.071,0.041 0.211,0.225 0.359,0.369 0.135,0.211 0.359,0.386 0.534,0.674 0.185,0.18 0.418,0.404 0.558,0.629 0,0 1.203,1.141 1.783,1.572 0,0 0.534,0.359 0.719,0.561 0.359,0.238 0.736,0.517 1.172,0.737 0.984,0.539 2.062,1.082 3.141,1.451 -0.449,-0.594 -0.926,-1.271 -1.209,-1.914 0,0 -1.109,-2.722 -1.109,-4.375 0,-5.391 2.516,-7.69 8.148,-7.69 2.709,0 5.054,0.947 6.892,2.583 0.237,0.184 0.574,0.382 0.728,0.669 l 6.055,5.822 3.424,3.233 1.832,1.797 4.133,3.958 c 2.422,2.151 6.227,2.062 8.428,-0.364 1.747,-1.675 4.002,-2.946 6.45,-3.616 0.575,-0.292 1.154,-0.337 1.869,-0.472 0.741,-0.18 1.607,-0.225 2.516,-0.225 0.094,0 0.35,0 0.444,0 h 0.193 c 1.878,-0.265 3.675,-0.911 5.301,-1.796 h 0.045 c 2.596,-4.098 4.807,-8.338 6.733,-12.83 -0.044,-0.127 -0.097,-0.392 -0.138,-0.495 z"
   fill="#2185d0" />
	<path
   id="path20"
   d="m 213.83,118.07 c -1,1 -2.11,2.03 -3.29,3.06 -6.95,6.08 -16.11,12.26 -16.11,12.26 l -4.729,-3.95 -8.26,-6.88 c 1.149,-1.93 4.649,-4.8 16.319,-6.97 0.19,-0.04 0.391,-0.07 0.59,-0.1 7.3,-1.18 17.8,0.26 15.48,2.58 z"
   fill="#2185d0" />
	<path
   id="path22"
   d="m 217.12,126.51 c -8.5,4.98 -22.93,10.04 -22.93,10.04 l -0.301,-0.33 0.311,-0.21 c 0.47,-0.32 10.72,-7.24 17.84,-13.78 4.04,1.48 6.77,3.3 5.08,4.28 z"
   fill="#2185d0" />
</g>
<text
   style="fill:black;fill-opacity:1;line-height:1.25;stroke:none;font-family:sans-serif;font-style:normal;font-weight:normal;font-size:40px;white-space:pre;shape-inside:url(#rect35);"
   id="text33"
   xml:space="preserve" /><text
   id="text41"
   y="105.47439"
   x="79.190842"
   style="font-style:normal;font-weight:normal;font-size:17.555px;line-height:1.25;font-family:sans-serif;fill:#196593;fill-opacity:1;stroke:none;stroke-width:0.438875"
   xml:space="preserve"><tspan
     style="font-style:italic;font-variant:normal;font-weight:bold;font-stretch:normal;font-size:32px;font-family:Helvetica;-inkscape-font-specification:'Helvetica Bold Italic';fill:#196593;fill-opacity:1;stroke-width:0.438875"
     y="105.47439"
     x="79.190842"
     id="tspan39">PegAssist</tspan><tspan
     style="font-style:normal;font-variant:normal;font-weight:normal;font-stretch:normal;font-size:21.3333px;font-family:Helvetica;-inkscape-font-specification:Helvetica;fill:#000000;fill-opacity:1;stroke-width:0.438875"
     id="tspan43"
     y="135.77208"
     x="79.190842">for Prime editing</tspan></text></svg>
